<svg version="1.2" baseProfile="tiny-ps" xmlns="http://www.w3.org/2000/svg" viewBox="0 0 24 24" width="24" height="24">
	<title>anchor-svg</title>
	<style>
		tspan { white-space:pre }
		.shp0 { fill: #9013fe } 
	</style>
	<path id="Layer" class="shp0" d="M23.21 8.17C23.21 8.17 22.21 7.69 21.16 8C20.38 8.23 19.53 8.82 19.04 10.05C18.1 12.42 18.91 16.54 18.6 16.54C18.28 16.54 17.28 12.74 15.94 8.79C14.6 4.83 13.44 0.73 11.35 1.06C9.5 1.35 10.07 6.03 10.8 10.42C11.45 14.4 12.22 18.12 11.78 18.12C11 18.12 8.45 7.13 5.84 7.55C3.23 7.96 6.59 20.07 5.89 20.1C5.31 20.11 3.88 12.73 1.77 13.06C0.16 13.32 1.59 19.07 1.66 20.67C1.67 21.08 1.8 21.83 1.2 21.83L0 21.83L0 22.95L1.96 22.95C2.36 22.93 2.68 22.78 2.84 22.38C3.38 21.04 1.96 15.34 2.29 15.3C2.52 15.27 3.01 17 3.7 18.97C4.39 20.93 5.09 22.96 6.4 22.96C9.23 22.96 6.34 11.84 6.9 11.84C7.2 11.84 8.01 14.1 8.9 16.58C9.99 19.61 11.32 22.96 12.92 22.96C14.83 22.96 14.21 18.63 13.62 14.47C13.1 10.87 12.5 7.49 12.82 7.49C13.54 7.49 16.27 22.96 19.54 22.96C21.18 22.96 21.2 19.73 21.2 16.24C21.2 13.79 21 11.56 22.53 11.02C23.26 10.77 24 11.22 24 11.22L23.21 8.17Z" />
</svg>