<svg version="1.2" baseProfile="tiny-ps" xmlns="http://www.w3.org/2000/svg" viewBox="0 0 24 24" width="24" height="24">
	<title>applepodcasts-svg</title>
	<style>
		tspan { white-space:pre }
		.shp0 { fill: #862fc0 } 
	</style>
	<path id="Layer" fill-rule="evenodd" class="shp0" d="M18.66 0C19.36 0 20.06 0.14 20.71 0.4C21.35 0.67 21.94 1.06 22.44 1.56C22.94 2.06 23.33 2.65 23.6 3.29C23.86 3.94 24 4.64 24 5.34L24 18.66C24 19.36 23.86 20.06 23.6 20.71C23.33 21.35 22.94 21.94 22.44 22.44C21.94 22.94 21.35 23.33 20.71 23.6C20.06 23.86 19.36 24 18.66 24L5.34 24C4.64 24 3.94 23.86 3.29 23.6C2.65 23.33 2.06 22.94 1.56 22.44C1.06 21.94 0.67 21.35 0.4 20.71C0.14 20.06 0 19.36 0 18.66L0 5.34C0 4.64 0.14 3.94 0.4 3.29C0.67 2.65 1.06 2.06 1.56 1.56C2.06 1.06 2.65 0.67 3.29 0.4C3.94 0.14 4.64 0 5.34 0L18.66 0ZM11.87 2.57C9.51 2.57 7.39 3.49 5.74 5.22C4.59 6.43 3.91 7.79 3.55 9.53C3.41 10.17 3.43 11.86 3.58 12.57C4.15 15.3 5.74 17.36 8.21 18.58L8.25 18.61C8.68 18.82 9.09 18.99 9.14 18.99C9.23 18.99 9.24 18.89 9.2 18.53C9.14 17.94 9.06 17.82 8.73 17.67C8.58 17.61 8.21 17.4 7.9 17.2C6.35 16.2 5.17 14.52 4.71 12.69C4.53 11.94 4.53 10.1 4.71 9.35C5.4 6.58 7.66 4.38 10.38 3.82C11.18 3.66 12.6 3.66 13.38 3.82C16.08 4.38 18.28 6.48 19.01 9.18C19.24 10.02 19.26 11.86 19.06 12.68C18.97 13.01 18.87 13.34 18.74 13.66C18.61 13.98 18.46 14.29 18.29 14.58C18.12 14.88 17.93 15.17 17.72 15.44C17.52 15.72 17.29 15.97 17.05 16.22C16.49 16.78 15.58 17.43 15.04 17.65C14.7 17.79 14.63 17.92 14.56 18.51C14.52 18.88 14.53 18.97 14.62 18.97C14.86 18.97 16.34 18.17 16.95 17.71C17.37 17.39 17.77 17.03 18.12 16.64C18.48 16.24 18.8 15.82 19.07 15.37C19.35 14.91 19.58 14.44 19.77 13.94C19.96 13.44 20.1 12.93 20.19 12.41C20.3 11.75 20.3 10.14 20.18 9.55C19.83 7.77 19.14 6.43 17.92 5.16C16.31 3.47 14.2 2.57 11.87 2.57L11.87 2.57ZM12 5.38C11.32 5.37 10.59 5.44 10.18 5.59C8.26 6.27 6.88 7.73 6.38 9.61C6.18 10.3 6.18 11.63 6.37 12.33C6.67 13.48 7.41 14.66 8.24 15.33L8.27 15.34C8.52 15.54 8.76 15.7 8.79 15.7C8.82 15.7 8.85 15.42 8.85 15.09L8.85 14.48L8.43 13.98C6.87 12.1 6.98 9.47 8.7 7.76C9.4 7.07 10.19 6.67 11.21 6.51C11.88 6.4 12.02 6.4 12.66 6.51C13.65 6.7 14.42 7.09 15.08 7.76C16.79 9.48 16.91 12.11 15.34 13.98L14.92 14.48L14.92 15.09C14.92 15.42 14.95 15.69 14.97 15.69C15.11 15.69 15.93 14.97 16.27 14.54C16.95 13.69 17.33 12.77 17.48 11.66C17.87 8.89 15.89 6.1 13.11 5.48C12.8 5.42 12.41 5.38 12 5.38L12 5.38ZM11.87 8.37C11.56 8.37 11.25 8.43 11.03 8.54C10.32 8.92 9.91 9.56 9.91 10.29C9.92 11.1 10.31 11.73 11.02 12.06L11.03 12.06C12.54 12.77 14.22 11.38 13.75 9.81C13.6 9.29 13.2 8.8 12.71 8.55C12.49 8.43 12.18 8.37 11.87 8.37ZM11.86 13.1C10.86 13.1 10.15 13.45 9.89 14.07C9.69 14.53 9.77 16 10.11 18.37C10.4 20.41 10.56 20.76 11.27 21.01L11.27 21.01C11.87 21.22 12.49 21.11 12.93 20.72C13.25 20.44 13.38 20.02 13.61 18.37C13.95 16 14.03 14.53 13.83 14.07C13.56 13.45 12.85 13.09 11.86 13.1L11.86 13.1Z" />
</svg>