<svg version="1.2" baseProfile="tiny-ps" xmlns="http://www.w3.org/2000/svg" viewBox="0 0 24 24" width="24" height="24">
	<title>facebook-svg</title>
	<style>
		tspan { white-space:pre }
		.shp0 { fill: #1773ea } 
	</style>
	<path id="Layer" class="shp0" d="M24 12.07C24 5.45 18.63 0.07 12 0.07C5.37 0.07 0 5.45 0 12.07C0 18.06 4.39 23.03 10.13 23.93L10.13 15.54L7.08 15.54L7.08 12.07L10.13 12.07L10.13 9.43C10.13 6.42 11.92 4.76 14.66 4.76C15.97 4.76 17.34 5 17.34 5L17.34 7.95L15.83 7.95C14.34 7.95 13.87 8.87 13.87 9.82L13.87 12.07L17.2 12.07L16.67 15.54L13.87 15.54L13.87 23.93C19.61 23.03 24 18.06 24 12.07Z" />
</svg>