<svg version="1.2" baseProfile="tiny-ps" xmlns="http://www.w3.org/2000/svg" viewBox="0 0 24 24" width="24" height="24">
	<title>instagram-svg</title>
	<defs>
		<linearGradient id="grd1" gradientUnits="userSpaceOnUse"  x1="24" y1="0" x2="0" y2="24">
			<stop offset="0" stop-color="#4665d0"  />
			<stop offset="0.48" stop-color="#d72d73"  />
			<stop offset="1" stop-color="#f7cc69"  />
		</linearGradient>
	</defs>
	<style>
		tspan { white-space:pre }
		.shp0 { fill: url(#grd1) } 
	</style>
	<path id="Layer" fill-rule="evenodd" class="shp0" d="M16.95 0.07C18.22 0.13 19.09 0.33 19.86 0.63C20.65 0.94 21.32 1.35 21.99 2.01C22.65 2.68 23.06 3.35 23.37 4.14C23.67 4.9 23.87 5.78 23.93 7.05C23.98 8.33 24 8.74 24 12C24 15.26 23.99 15.67 23.93 16.95C23.87 18.22 23.67 19.09 23.37 19.86C23.07 20.65 22.65 21.32 21.99 21.99C21.32 22.65 20.65 23.06 19.86 23.37C19.09 23.67 18.22 23.87 16.95 23.93C15.67 23.98 15.26 24 12 24C8.74 24 8.33 23.99 7.05 23.93C5.78 23.87 4.91 23.67 4.14 23.37C3.35 23.07 2.68 22.65 2.01 21.99C1.35 21.32 0.94 20.65 0.63 19.86C0.33 19.09 0.13 18.22 0.07 16.95C0.01 15.67 0 15.26 0 12C0 8.74 0.01 8.33 0.07 7.05C0.13 5.78 0.33 4.91 0.63 4.14C0.94 3.35 1.35 2.68 2.01 2.01C2.68 1.35 3.35 0.94 4.14 0.63C4.91 0.33 5.78 0.13 7.05 0.07C8.33 0.01 8.74 0 12 0C15.26 0 15.67 0.01 16.95 0.07ZM12 2.16L11.96 2.13C8.75 2.13 8.37 2.15 7.1 2.19C5.93 2.25 5.3 2.45 4.88 2.61C4.31 2.82 3.92 3.09 3.5 3.51C3.08 3.93 2.81 4.32 2.6 4.89C2.43 5.31 2.24 5.95 2.18 7.12C2.13 8.4 2.12 8.79 2.12 11.99C2.12 15.18 2.13 15.57 2.18 16.83C2.24 18 2.43 18.64 2.6 19.06C2.81 19.62 3.08 20.03 3.5 20.44C3.92 20.86 4.31 21.12 4.88 21.34C5.3 21.51 5.94 21.7 7.11 21.76C8.38 21.82 8.76 21.84 11.97 21.84C15.18 21.84 15.56 21.83 16.83 21.77C18 21.72 18.64 21.52 19.06 21.36C19.62 21.14 20.03 20.88 20.44 20.46C20.86 20.04 21.12 19.64 21.34 19.08C21.51 18.66 21.7 18.02 21.76 16.85C21.82 15.59 21.84 15.2 21.84 12C21.84 8.8 21.83 8.42 21.77 7.15C21.72 5.98 21.52 5.34 21.36 4.92C21.14 4.36 20.88 3.96 20.46 3.54C20.04 3.12 19.64 2.86 19.08 2.65C18.66 2.48 18.02 2.29 16.85 2.23C15.59 2.18 15.2 2.16 12 2.16ZM18.16 12C18.16 15.4 15.4 18.16 12 18.16C8.6 18.16 5.84 15.4 5.84 12C5.84 8.6 8.6 5.84 12 5.84C15.4 5.84 18.16 8.6 18.16 12ZM16 12C16 9.79 14.21 8 12 8C9.79 8 8 9.79 8 12C8 14.21 9.79 16 12 16C14.21 16 16 14.21 16 12ZM19.85 5.6C19.85 6.39 19.2 7.04 18.41 7.04C17.61 7.04 16.97 6.39 16.97 5.6C16.97 4.8 17.61 4.16 18.41 4.16C19.2 4.16 19.85 4.8 19.85 5.6Z" />
</svg>