<svg version="1.2" baseProfile="tiny-ps" xmlns="http://www.w3.org/2000/svg" viewBox="0 0 24 24" width="24" height="24">
	<title>spotify-svg</title>
	<style>
		tspan { white-space:pre }
		.shp0 { fill: #1dd05d } 
	</style>
	<path id="Layer" fill-rule="evenodd" class="shp0" d="M24 12C24 18.6 18.6 24 12 24C5.4 24 0 18.6 0 12C0 5.4 5.4 0 12 0C18.66 0 24 5.4 24 12ZM17.52 17.34C17.7 16.98 17.64 16.5 17.22 16.32C14.1 14.4 10.14 13.98 5.58 15C5.22 15.12 4.92 15.48 5.04 15.9C5.16 16.26 5.52 16.56 5.94 16.44C10.14 15.48 13.68 15.84 16.5 17.58C16.86 17.82 17.28 17.7 17.52 17.34ZM18.96 14.04C19.26 13.62 19.08 13.02 18.72 12.84C15 10.56 9.6 9.9 5.22 11.22C4.74 11.34 4.5 11.88 4.62 12.36C4.74 12.84 5.28 13.08 5.76 12.96C9.54 11.76 14.46 12.36 17.7 14.34C18.12 14.64 18.66 14.46 18.96 14.04ZM19.08 10.68C19.62 10.98 20.34 10.8 20.64 10.38C20.94 9.84 20.76 9.12 20.22 8.82C15.78 6.18 8.76 5.94 4.5 7.2C3.96 7.38 3.6 7.98 3.78 8.58C3.96 9.12 4.56 9.48 5.16 9.3C8.82 8.16 15.24 8.4 19.08 10.68Z" />
</svg>