<svg version="1.2" baseProfile="tiny-ps" xmlns="http://www.w3.org/2000/svg" viewBox="0 0 24 24" width="24" height="24">
	<title>twitter-svg</title>
	<style>
		tspan { white-space:pre }
		.shp0 { fill: #ecf1ef } 
	</style>
	<path id="Layer" class="shp0" d="M23.95 4.57C23.73 4.67 23.5 4.76 23.27 4.84C23.04 4.92 22.81 5 22.57 5.06C22.33 5.13 22.09 5.18 21.85 5.23C21.61 5.28 21.37 5.32 21.13 5.35C21.38 5.19 21.62 5.02 21.84 4.82C22.07 4.63 22.27 4.41 22.46 4.18C22.64 3.95 22.8 3.7 22.94 3.44C23.08 3.18 23.2 2.9 23.29 2.62C22.34 3.18 21.29 3.58 20.16 3.81C19.42 3.01 18.44 2.49 17.37 2.31C16.3 2.14 15.21 2.32 14.25 2.83C13.3 3.34 12.53 4.15 12.09 5.14C11.64 6.13 11.53 7.23 11.78 8.29C7.69 8.1 4.07 6.13 1.64 3.16C1.53 3.35 1.43 3.54 1.35 3.74C1.27 3.94 1.2 4.15 1.14 4.35C1.08 4.56 1.04 4.78 1.01 4.99C0.99 5.2 0.97 5.42 0.97 5.64C0.97 7.35 1.84 8.85 3.16 9.73C2.97 9.73 2.77 9.71 2.58 9.68C2.39 9.65 2.2 9.61 2.01 9.56C1.82 9.51 1.64 9.44 1.46 9.37C1.28 9.3 1.1 9.21 0.93 9.12L0.93 9.18C0.93 9.74 1.03 10.3 1.22 10.83C1.41 11.36 1.69 11.86 2.05 12.29C2.4 12.73 2.83 13.1 3.31 13.39C3.8 13.69 4.33 13.89 4.88 14C4.7 14.05 4.52 14.09 4.33 14.12C4.15 14.15 3.96 14.16 3.78 14.17C3.59 14.18 3.41 14.17 3.22 14.16C3.04 14.15 2.85 14.12 2.67 14.09C2.83 14.58 3.06 15.03 3.35 15.45C3.65 15.86 4.01 16.23 4.42 16.53C4.83 16.84 5.29 17.08 5.77 17.24C6.26 17.41 6.76 17.5 7.27 17.51C6.84 17.84 6.38 18.15 5.9 18.41C5.42 18.67 4.92 18.89 4.4 19.07C3.88 19.25 3.35 19.39 2.81 19.48C2.27 19.57 1.72 19.61 1.17 19.61C0.78 19.61 0.39 19.59 0 19.54C0.56 19.9 1.15 20.22 1.75 20.5C2.36 20.77 2.98 21 3.62 21.19C4.26 21.38 4.91 21.52 5.57 21.61C6.23 21.71 6.89 21.75 7.56 21.75C16.61 21.75 21.55 14.26 21.55 7.77C21.55 7.56 21.55 7.35 21.54 7.14C21.78 6.96 22.01 6.78 22.24 6.59C22.46 6.39 22.68 6.19 22.88 5.97C23.09 5.76 23.29 5.54 23.47 5.31C23.66 5.08 23.84 4.84 24 4.59L23.95 4.57Z" />
</svg>