<svg version="1.2" baseProfile="tiny-ps" xmlns="http://www.w3.org/2000/svg" viewBox="0 0 24 24" width="24" height="24">
	<title>youtube-svg</title>
	<style>
		tspan { white-space:pre }
		.shp0 { fill: #f70000 } 
	</style>
	<path id="Layer" fill-rule="evenodd" class="shp0" d="M24 12C24 12 24 15.93 23.5 17.81C23.43 18.07 23.33 18.31 23.2 18.54C23.07 18.77 22.91 18.98 22.72 19.17C22.54 19.35 22.33 19.51 22.1 19.65C21.87 19.78 21.63 19.88 21.38 19.95C19.5 20.45 12 20.45 12 20.45C12 20.45 4.49 20.45 2.62 19.95C2.37 19.88 2.13 19.78 1.9 19.65C1.67 19.51 1.46 19.35 1.28 19.17C1.09 18.98 0.93 18.77 0.8 18.54C0.67 18.31 0.57 18.07 0.5 17.81C0 15.93 0 12 0 12C0 12 0 8.07 0.5 6.19C0.57 5.93 0.67 5.69 0.8 5.46C0.93 5.23 1.09 5.02 1.28 4.83C1.46 4.65 1.67 4.49 1.9 4.35C2.13 4.22 2.37 4.12 2.62 4.05C4.5 3.54 12 3.54 12 3.54C12 3.54 19.5 3.54 21.38 4.05C21.63 4.12 21.87 4.22 22.1 4.35C22.33 4.49 22.54 4.65 22.72 4.83C22.91 5.02 23.07 5.23 23.2 5.46C23.33 5.69 23.43 5.93 23.5 6.19C24 8.07 24 12 24 12ZM15.82 12L9.54 8.43L9.54 15.57L15.82 12Z" />
</svg>